<svg width="18" height="23" viewBox="0 0 18 23" fill="none" xmlns="http://www.w3.org/2000/svg">
<path d="M14.3701 7.73774V5.52696C14.3701 2.43186 11.9382 0 8.84313 0C5.74804 0 3.31618 2.43186 3.31618 5.52696V7.73774C1.43701 7.73774 0 9.17475 0 11.0539V18.7917C0 20.6708 1.43701 22.1078 3.31618 22.1078H14.3701C16.2493 22.1078 17.6863 20.6708 17.6863 18.7917V11.0539C17.6863 9.17475 16.2493 7.73774 14.3701 7.73774ZM5.52696 5.52696C5.52696 3.64779 6.96397 2.21078 8.84313 2.21078C10.7223 2.21078 12.1593 3.64779 12.1593 5.52696V7.73774H5.52696V5.52696ZM10.0591 14.9228L9.94853 15.0333V16.5809C9.94853 17.2441 9.50637 17.6863 8.84313 17.6863C8.1799 17.6863 7.73774 17.2441 7.73774 16.5809V15.0333C7.07451 14.3701 6.96397 13.3752 7.6272 12.712C8.29044 12.0488 9.28529 11.9382 9.94853 12.6015C10.6118 13.1542 10.7223 14.2596 10.0591 14.9228Z" fill="black"/>
</svg>
