<svg width="22" height="24" viewBox="0 0 22 24" fill="none" xmlns="http://www.w3.org/2000/svg">
<path d="M13 21.5C13 22.2301 12.2145 23 11 23C9.78555 23 9 22.2301 9 21.5C9 20.7699 9.78555 20 11 20C12.2145 20 13 20.7699 13 21.5Z" fill="#99A9B1" stroke="black"/>
<rect x="10" y="1" width="2" height="5" rx="1" fill="#99A9B1" stroke="black"/>
<path d="M16.0257 12.6581L16.0303 12.6721L16.0358 12.6857L17.64 16.6963C17.8516 17.2253 17.8689 17.8123 17.6887 18.3528C17.3608 19.3365 16.4402 20 15.4033 20H6.59669C5.55978 20 4.63921 19.3365 4.31131 18.3528C4.13113 17.8123 4.14838 17.2253 4.35999 16.6963L5.96424 12.6857L5.9697 12.6721L5.97434 12.6581L6.8333 10.0812C6.93876 9.76487 7.00872 9.43778 7.0419 9.10597L7.13732 8.15174C7.31624 6.36253 8.82182 5 10.62 5H11.38C13.1782 5 14.6838 6.36253 14.8627 8.15174L14.9581 9.10597C14.9913 9.43778 15.0612 9.76487 15.1667 10.0812L15.641 9.92311L15.1667 10.0812L16.0257 12.6581Z" fill="#FFC100" stroke="black"/>
<path d="M1 17.5C1 17.2239 1.22386 17 1.5 17H20.5C20.7761 17 21 17.2239 21 17.5V21H1V17.5Z" fill="#FFC100" stroke="black"/>
</svg>
